# xmcd
#
# Track frame offsets:
#	150
#	19250
#	40553
#	62904
#	81418
#	106625
#	123172
#	137319
#	158576
#	184660
#	201443
#	218965
#	249701
#	267105
#	288525
#	305391
#	319667
#
# Disc length: 4517 seconds
#
# Revision: 2
# Processed by: cddbd v1.5.2PL0 Copyright (c) Steve Scherf et al.
# Submitted via: EasyCDDAExtractor 12.0.7.1
#
DISCID=ea11a311
DTITLE=Александр Розенбаум - Аллея шансона
DYEAR=2011
DGENRE=Chanson
TTITLE0=Вальс-Бостон
TTITLE1=Утиная охота
TTITLE2=Ау
TTITLE3=Где-нибудь, как-нибудь
TTITLE4=На плантациях любви
TTITLE5=Перекати-поле
TTITLE6=Необычно, незнакомо
TTITLE7=Вещая судьба
TTITLE8=Хорунжий
TTITLE9=Жеребенок
TTITLE10=Воскресение
TTITLE11=Если было бы можно
TTITLE12=Гоп-стоп
TTITLE13=Сусуманская лирическая
TTITLE14=Лето в садоводстве
TTITLE15=Покажите мне Москву
TTITLE16=Приморский Парк Победы
EXTD=Iocueaeuiay eieeaeoey IE (Aeeay oainiia): Aeaenaia? ?icaiaaoi.\n\nIocuea,
EXTD=neiaa - Aeaenaia? ?icaiaaoi.\n\nAene - i?eei?aiea e aacaoa «Iineianeee e
EXTD=iiniiieao» (www.mk.ru).\n\n(C) and (P) CAI «Eiiiaiey «AE?IC», 2011 a.\n(N) 
EXTD=III «?IA I?ANN», 2011 a.\n(N) III «Eiiiaiey O?aaao», 2011 a.\n
EXTT0=
EXTT1=
EXTT2=
EXTT3=
EXTT4=
EXTT5=
EXTT6=
EXTT7=
EXTT8=
EXTT9=
EXTT10=
EXTT11=
EXTT12=
EXTT13=
EXTT14=
EXTT15=
EXTT16=
PLAYORDER=
